<svg width="28" height="28" viewBox="0 0 28 28" fill="none" xmlns="http://www.w3.org/2000/svg">
<path d="M23.3333 14V8.16666H25.6666V15.1667H23.3333M23.3333 19.8333H25.6666V17.5H23.3333M11.6666 15.1667C14.7816 15.1667 21 16.73 21 19.8333V23.3333H2.33331V19.8333C2.33331 16.73 8.55165 15.1667 11.6666 15.1667ZM11.6666 4.66666C12.9043 4.66666 14.0913 5.15832 14.9665 6.03349C15.8416 6.90866 16.3333 8.09565 16.3333 9.33332C16.3333 10.571 15.8416 11.758 14.9665 12.6332C14.0913 13.5083 12.9043 14 11.6666 14C10.429 14 9.24198 13.5083 8.36681 12.6332C7.49165 11.758 6.99998 10.571 6.99998 9.33332C6.99998 8.09565 7.49165 6.90866 8.36681 6.03349C9.24198 5.15832 10.429 4.66666 11.6666 4.66666M11.6666 17.3833C8.20165 17.3833 4.54998 19.0867 4.54998 19.8333V21.1167H18.7833V19.8333C18.7833 19.0867 15.1316 17.3833 11.6666 17.3833M11.6666 6.88332C11.0169 6.88332 10.3937 7.14145 9.93424 7.60091C9.47477 8.06038 9.21665 8.68354 9.21665 9.33332C9.21665 9.9831 9.47477 10.6063 9.93424 11.0657C10.3937 11.5252 11.0169 11.7833 11.6666 11.7833C12.3164 11.7833 12.9396 11.5252 13.3991 11.0657C13.8585 10.6063 14.1166 9.9831 14.1166 9.33332C14.1166 8.68354 13.8585 8.06038 13.3991 7.60091C12.9396 7.14145 12.3164 6.88332 11.6666 6.88332V6.88332Z" fill="black"/>
</svg>
